<?xml version="1.0" encoding="UTF-8" standalone="no"?>
<svg xmlns:rdf="http://www.w3.org/1999/02/22-rdf-syntax-ns#" xmlns="http://www.w3.org/2000/svg" height="239.98593" width="262.83415" version="1.1" xmlns:cc="http://creativecommons.org/ns#" xmlns:dc="http://purl.org/dc/elements/1.1/" viewBox="0 0 262.83415 239.98593"><path d="M131.41707,0C74.90614.74219,32.01933,19.56149,0,43.31093V196.728c32.01933,23.74943,74.90614,42.56873,131.41707,43.25791,56.45792-.68918,99.39773-19.50848,131.41708-43.25791V43.31093C230.8148,19.56149,187.875.74219,131.41707,0Z" fill="#e5e5e5"/><path d="M172.76652,172.07739V79.88932h23.37836V153.2581H222.704v18.81929ZM130.887,98.70861V116.9978h23.74942v18.8193H130.887v36.26029H107.45558V79.88932H157.446V98.70861Zm-39.441,73.73987H63.29648c-15.26749,0-20.03858-6.36146-20.03858-20.25063V99.39777c0-11.7687,3.33976-20.03858,18.97834-20.03858H91.28689l.9012.9012V98.01946H66.63625v55.39767H92.18809v17.97111Z" fill="#202020"/><path d="M144.6171,210.24613l-1.59037-3.65784-5.46026,6.30844s2.1205-11.98074,2.1205-12.29881c-.21206.159-4.241,2.12049-4.241,2.12049l-4.02892-8.11086-4.08194,8.11086s-4.02892-2.12049-4.188-2.12049c.159.159,2.12048,12.29881,2.12048,12.29881l-5.46024-6.30844-1.59037,3.65784-5.99037-1.21928,1.7494,7.36869-1.7494.9012c3.49879.9012,9.64821,1.90844,19.50847,1.90844,9.17109,0,14.79037-1.00724,18.28918-2.06748l-1.53736-.9012,1.7494-7.36869Z" fill="#c42127"/><path d="M201.075,45.74947a300.21161,300.21161,0,0,0-49.08924-8.11085c-.159-5.40724-1.7494-8.42891-2.43856-9.48917-.74216,1.06026-2.12048,3.86989-2.49156,9.17111-4.241-.3711-8.641-.53013-13.2-.53013-.37109-4.93012-1.74941-7.58072-2.43857-8.641-.74217,1.06026-2.12048,3.71086-2.49156,8.641l-13.2.53013c-.31807-5.30122-1.74939-8.11085-2.43855-9.17111-.68916,1.21929-2.12048,4.241-2.49157,9.70123a295.62921,295.62921,0,0,0-49.08923,8.05784c15.85062-1.90844,32.39041-3.33976,49.08923-4.02892a19.05939,19.05939,0,0,0,2.49157,8.641c.68916-1.06025,2.12048-3.86989,2.43855-8.8,4.4-.212,8.8-.37107,13.2-.37107.37108,5.30121,1.74939,7.89881,2.49156,9.1711.68916-1.06025,2.06748-3.86989,2.43857-9.1711,4.4,0,8.8.159,13.2.37107.37108,4.93014,1.7494,7.73978,2.49156,8.8.68916-1.06025,2.06747-3.71086,2.43856-8.641C168.68459,42.4097,185.06534,43.84105,201.075,45.74947Z" fill="#202020"/></svg>