<?xml version="1.0" encoding="utf-8"?>
<!-- Generator: Adobe Illustrator 23.0.1, SVG Export Plug-In . SVG Version: 6.00 Build 0)  -->
<svg version="1.1"
	 id="svg2" xmlns:cc="http://creativecommons.org/ns#" xmlns:dc="http://purl.org/dc/elements/1.1/" xmlns:rdf="http://www.w3.org/1999/02/22-rdf-syntax-ns#" xmlns:svg="http://www.w3.org/2000/svg"
	 xmlns="http://www.w3.org/2000/svg" xmlns:xlink="http://www.w3.org/1999/xlink" x="0px" y="0px" viewBox="0 0 579.1 128.2"
	 style="enable-background:new 0 0 579.1 128.2;" xml:space="preserve">
<style type="text/css">
	.st0{fill:#0093D0;}
	.st1{fill:#FFFFFF;}
	.st2{fill:#ED1B2F;}
	.st3{fill:#002052;}
</style>
<g>
	<polygon id="polygon6238" class="st0" points="0,128.1 128.2,128.1 179.6,0 179.6,0 128.2,0 	"/>
	<path id="path6240" class="st1" d="M119.5,49.3c-2-1-3.3-3-3.3-5.3c0-3.2,2.6-5.9,5.9-5.9c3.2,0,5.9,2.6,5.9,5.9
		c0,2.3-1.4,4.4-3.4,5.3V51c1.8,0.2,4,0.9,5.4,1.6c0.6-0.1,1.4-0.1,2.2-0.1c7.4,0,12.6,4.9,12.6,11.6c0,4.2-3.7,8-7.9,8
		c-4.2,0-8-4.1-7.2-8.3c0,0-0.4,1.4-0.4,3.2c0,1.1,0,21.2,0,21.2c-0.2,2.4-3.4,15.7-18.4,15.7S92.7,90.6,92.5,88.2
		c0,0,0-20.1,0-21.2c0-1.7-0.5-3.2-0.5-3.2c0.8,4-3.1,8.3-7.2,8.3c-4.2,0-7.9-3.8-7.9-8c0-6.7,5.2-11.6,12.6-11.6
		c0.8,0,1.6,0,2.2,0.1c1.3-0.7,3.6-1.5,5.4-1.6v-1.7c-2-1-3.3-3-3.3-5.3c0-3.2,2.6-5.9,5.9-5.9c3.3,0,5.9,2.6,5.9,5.9
		c0,2.3-1.4,4.4-3.4,5.3v2.2c0.5,0.2,1,0.3,1.5,0.6c0.9-2,2.7-3.5,4.8-4.2v-1.8c-2-0.9-3.4-3-3.4-5.3c0-3.2,2.6-5.9,5.9-5.9
		c3.2,0,5.9,2.6,5.9,5.9c0,2.3-1.4,4.4-3.3,5.3v1.8c2.1,0.7,3.9,2.2,4.8,4.2c0.5-0.2,1-0.4,1.5-0.6L119.5,49.3L119.5,49.3
		L119.5,49.3z"/>
	<path id="path6242" class="st2" d="M142.3,64.2c0-5.5-3.7-9.9-11.4-9.9c-5.1,0-11.1,4.3-11.1,15.2c0,8.5,0,16.2,0,16.2
		c2.2-1.5,5.3-2.8,6.9-2.8c0-4.8,0-14.3,0-15.1c0-5.8,4.2-7.5,6.1-7.5c-1.1,1-1.8,2.2-1.8,3.9c0,3.1,2.5,5.6,5.6,5.6
		C139.8,69.8,142.2,67.5,142.3,64.2L142.3,64.2z"/>
	<path id="path6244" class="st2" d="M79,64.2c0-5.5,3.7-9.9,11.4-9.9c5.1,0,11.2,4.3,11.2,15.2c0,8.5,0,16.2,0,16.2
		c-2.2-1.5-5.3-2.8-6.9-2.8c0-4.8,0-14.3,0-15.1c0-5.8-4.2-7.5-6.1-7.5c1.1,1,1.8,2.2,1.8,3.9c0,3.1-2.6,5.6-5.6,5.6
		C81.5,69.8,79.1,67.5,79,64.2L79,64.2z"/>
	<path id="path6246" class="st2" d="M110.7,101.6c12.8,0,15.7-10.7,16.1-13.5c0,0,0-3,0-3.6c-4,1-7.5,3.1-9.9,6.3
		c-0.8-3.7-3.2-6.8-6.2-8.9c-3,2-5.3,5.2-6.2,8.9c-2.4-3.2-5.9-5.3-9.9-6.3c0,0.6,0,3.6,0,3.6C94.9,90.9,97.8,101.6,110.7,101.6
		L110.7,101.6z"/>
	<path id="path6248" class="st2" d="M111.6,44.9v4.5c2.2,0.3,4.1,1.8,4.8,3.6c-2.6,1.7-4.7,4.3-5.7,7.5c-1-3.2-3.1-5.8-5.7-7.5
		c0.8-1.8,2.6-3.3,4.8-3.6v-4.5c-1.8-0.4-3.2-2.1-3.2-4c0-2.3,1.9-4.1,4.1-4.1c2.3,0,4.1,1.8,4.1,4.1
		C114.8,42.8,113.4,44.5,111.6,44.9L111.6,44.9L111.6,44.9z"/>
	<path id="path6250" class="st2" d="M100.3,48.1v4.7c5.6,1.1,9.6,7,9.6,12.5c0,5.8,0,15.2,0,15.2c-2.6,1.5-5.2,4.6-6,7.1
		c-0.2-0.2-0.4-0.5-0.7-0.7c0,0,0-11.1,0-19.6c0-5.9-3.2-11.9-8.8-13.8c0,0,1.8-0.8,4.1-0.8V48c-1.8-0.4-3.2-2-3.2-4
		c0-2.3,1.8-4.1,4.1-4.1s4.1,1.8,4.1,4.1C103.5,46,102.1,47.6,100.3,48.1L100.3,48.1z"/>
	<path id="path6252" class="st2" d="M122.9,48.1v4.6c2.3,0,4.1,0.8,4.1,0.8c-5.7,2-8.8,8-8.8,13.8c0,8.5,0,19.6,0,19.6
		c-0.3,0.3-0.5,0.5-0.7,0.7c-0.8-2.6-3.4-5.7-6-7.1c0,0,0-9.4,0-15.2c0-5.5,4-11.4,9.6-12.5V48c-1.8-0.4-3.2-2-3.2-4
		c0-2.3,1.8-4.1,4.1-4.1s4.1,1.8,4.1,4.1C126.2,46,124.8,47.7,122.9,48.1L122.9,48.1L122.9,48.1z"/>
	<path id="path4787" class="st3" d="M239.3,27.8h16V43h-16V27.8L239.3,27.8z M216.9,52.2V49H232v20.5h7.4V49h15.9v2.9h7.4V21.5
		h-23.4c0,0,0-12,0-12.1c0.1,0-7.2,0-7.3,0v12.1h-22.3v30.7H216.9L216.9,52.2z M232,43h-15.1V27.8H232V43z"/>
	<g id="g4789" transform="matrix(2.1710517,0,0,-2.1710517,432.0481,942.03671)">
		<path id="path4791" class="st3" d="M-4.8,429.5h3.5v-4.8h11.5v-3h-16l-0.1-3.3h13c-0.2-3.2-0.4-6.9-0.6-9.9
			c-0.2-2.7-0.5-4-1.4-4.8c-0.8-0.7-3-0.9-5.7-1.3c-0.2,1.3-0.8,2.4-1.4,3.6c3.2,0.2,4.9-0.1,5.1,1.7c0.2,1.7,0.4,4.4,0.4,7.7h-9.6
			c-0.7-9-4.4-11.1-7.8-13.3c-0.8,0.9-1.5,1.8-2.6,2.6c7.4,3.3,7.3,8.5,7.4,17h-7v3h11.4C-4.8,424.6-4.8,429.5-4.8,429.5"/>
	</g>
	<g id="g4793" transform="matrix(2.1710517,0,0,-2.1710517,566.88083,964.35295)">
		<path id="path4795" class="st3" d="M-4.8,429.5l1.7,2.5c3.3-1.7,7.1-3.5,9.2-4.9c0,0-1.3-1.6-2.2-2.7
			C1.5,426.2-2.7,428.3-4.8,429.5 M2.3,424.2v-2.9h-7.5v-4.8H5.6v-3h-25v3h10.5v4.8h-7.2v2.9H2.3z M-17.9,424.1
			c-0.5,0.8-1.3,1.9-1.9,2.8c2.4,0.9,6.7,3.1,8.9,5.3c0,0,2.1-2.2,2.2-2.3C-10,428.5-15.1,425.4-17.9,424.1 M-8.8,439.6h3.5v-3.1H5
			v-6.3H1.7v3.5h-17.1v-3.6h-3.3v6.4h9.8C-8.8,436.5-8.8,439.6-8.8,439.6"/>
	</g>
	<g id="g4797" transform="matrix(2.1710517,0,0,-2.1710517,319.39982,971.96335)">
		<path id="path4799" class="st3" d="M-4.8,429.5H-3v2.5h-5v3h5.9v2.4h-14.4V435h5.6v-3h-4.9v-2.4h4.9v-4.2H-17v-2.6h15.3v2.6h-6.2
			v4.2H-5l-2-1.2c0.8-0.8,1.7-2,2.3-2.8l2,1.3C-3.4,427.7-4.4,428.9-4.8,429.5 M-18.3,416.1v2.3h17.7v-2.2h3.2v25.9h-24v-25.9
			C-21.4,416.1-18.3,416.1-18.3,416.1z M-0.5,420.9h-17.8v18.4h17.7L-0.5,420.9L-0.5,420.9z"/>
	</g>
	<g id="g4801" transform="matrix(2.1710517,0,0,-2.1710517,379.58788,965.74938)">
		<path id="path4803" class="st3" d="M-4.8,429.5c-1-1.5-1.5-2.5-2.4-3.7h-2.7l1.2,0.6c-0.5,0.9-1.8,2.5-2.3,3.1L-4.8,429.5z
			 M-4.4,429.5h4.6v-11.8c0-1.1-0.5-1.5-1.9-1.5H-3c0.6-1.3,1.1-2.1,1.5-3.3c2.3,0.3,3.2,0.7,3.8,1.1c0.7,0.5,1.1,0.9,1.1,2.7V432
			h-9.7v2.2H5.5v2.8H-6.3v3.3h-3.3V437h-12v-2.8h12V432h-9.6v-19h3.1v16.4h4.9l-2.3-1c0.6-0.8,1.3-1.9,1.8-2.7h-2.9v-2.4h5.1v-2.1
			h-5.9v-2.6h5.9v-4.9h3v4.9h6v2.6h-6v2.1h5.4v2.4h-3.1c0.5,0.6,1.8,2.1,2.1,2.5L-4.4,429.5z"/>
	</g>
	<g id="g4805" transform="matrix(2.1710517,0,0,-2.1710517,487.00111,958.06276)">
		<path id="path4807" class="st3" d="M-4.8,429.5l-2.4-0.4c0.4-1.6,0.6-2.9,0.8-3.9l2.3,0.5C-4.2,426.6-4.6,428.6-4.8,429.5
			 M-3.3,424.4h-4.5v5.9h4.5V424.4z M-1.1,411.2c1-0.5,1.9-1.1,2.7-1.6c2,2.2,3.6,5.3,3.5,13.9v0.8h2.5l-0.2-11.2
			c0-2,0.3-2.7,2.2-2.8h2.5c0.9,0,1.5,1.3,2.3,4.1c-0.8,0.4-1.9,1-2.5,1.6c-0.2-1.2-0.4-2.4-0.7-2.7c-0.2-0.2-0.4-0.1-0.5-0.1
			c-0.2,0-0.3,0.2-0.2,0.6c0,3,0.3,13.1,0.3,13.1H2.3v-6C2.3,416.4,1.1,412.9-1.1,411.2 M-4.9,420.9l-2.5-0.3
			c0.3-1.5,0.6-3.7,0.8-4.8l2.5,0.6C-4.2,417.6-4.7,420-4.9,420.9 M-12.6,424.4v-2.8h2.1v-0.8c-0.1-3.9-0.8-7-2.2-9.1
			c0.7-0.6,1.7-1.5,2.5-2.3c1.7,2.5,2.4,5.3,2.4,12.2h4.5v-7.5c0-0.9-0.5-0.9-3.1-0.9c0.6-1,0.8-1.9,1-3.1c3.7,0.4,4.8,1.2,4.8,2.6
			v20h-3.8c0.2,0.9,0.6,2.6,0.8,3.3c-0.6,0.2-2.7,0.5-3,0.6c-0.1-0.9-0.3-2.5-0.6-3.9h-3.3v-8.3C-10.5,424.4-12.6,424.4-12.6,424.4z
			 M8.3,432.2v4.6H5v-4.6H0.2v-2.8h13.4v2.8C13.5,432.2,8.3,432.2,8.3,432.2z"/>
	</g>
	<g id="g4809" transform="matrix(2.1710517,0,0,-2.1710517,588.10069,1046.7805)">
		<path id="path4811" class="st3" d="M-4.8,429.5v15.8h-1.4v-11.2l-10.1,11.2h-0.6v-15.8h1.5v11l10.1-11H-4.8z M-18.2,429.5l-4,7.8
			c1.7,0.5,3.4,1.1,3.4,4c0,3-2.6,4-4.7,4H-29v-15.7h2.4v7.6h2.1l3.9-7.6C-20.7,429.5-18.2,429.5-18.2,429.5z M-24.1,438.3h-2.6v5.4
			h2.6c1.5,0,2.7-1.2,2.7-2.7S-22.6,438.3-24.1,438.3 M-38.7,437.1h7.8v1.4h-7.8v5.2h7.8v1.4H-41v-15.6h10.1v1.5h-7.8V437.1z
			 M-45.4,429.5h2.3v15.8h-2.3v-6.9h-7.5v6.9h-2.4v-15.8h2.4v7.5h7.5C-45.4,436.9-45.4,429.5-45.4,429.5z M-60.9,443.7h4.7v1.4
			h-11.9v-1.4h4.8v-14.2h2.4C-60.9,429.5-60.9,443.7-60.9,443.7z M-69.1,435v10.3h-1.4v-10.5c0-2.3-2-3.9-3.8-3.9
			c-2.1,0-4.2,1.5-4.2,3.9v10.5h-2.3v-10.4c0-2.8,2.4-5.5,5.9-5.5C-70.8,429.5-69.1,432.7-69.1,435 M-82.4,437.5
			c0,4.5-3.6,8.1-8,8.1s-8-3.6-8-8.1s3.6-8.1,8-8.1S-82.4,433-82.4,437.5 M-84.9,437.4c0-3.7-2.5-6.7-5.5-6.7s-5.5,3-5.5,6.7
			c0,3.7,2.5,6.7,5.5,6.7S-84.9,441.1-84.9,437.4 M-100,443.1v1.9c-9.2,2.6-9.9-4.9-6.9-6.9c1.2-0.8,3.2-2.1,4.4-2.9
			c2.8-1.8-0.4-6.6-5.8-3v-2.1c8.6-3,11.2,4.1,7.3,7.1c-1.5,1.1-2.6,1.9-4,2.7C-107.8,441.6-106.4,445.6-100,443.1 M-119,429.5h2.7
			l-4.8,15.9h-2.5l-4.8-15.9h1.9l1.4,4.9h4.7L-119,429.5L-119,429.5z M-120.8,435.8h-4l2,6.8L-120.8,435.8L-120.8,435.8z
			 M-129.9,429.5h0.6v15.7h-1.4V434l-10.1,11.2h-0.6v-15.7h1.5v11C-140,440.5-129.9,429.5-129.9,429.5z M-146.4,429.5h2.4v15.8h-2.4
			V429.5z M-151.2,429.5h2.3v15.8h-2.3v-6.8h-7.5v6.8h-2.3v-15.8h2.3v7.4h7.5C-151.2,437-151.2,429.5-151.2,429.5z M-167.8,429.3
			c2.1,0,3.8,0.4,5.1,0.7v1.8c-1.4-0.7-2.5-1.1-4-1.1c-8.8,0-8.1,13.3-0.9,13.3c2.8,0,4-0.5,4.9-0.8v1.7c-1.3,0.3-2.8,0.5-5.1,0.5
			C-179,445.5-178.3,429.3-167.8,429.3"/>
	</g>
</g>
</svg>
