<?xml version="1.0" encoding="UTF-8" standalone="no"?>
<svg
   xmlns:dc="http://purl.org/dc/elements/1.1/"
   xmlns:cc="http://creativecommons.org/ns#"
   xmlns:rdf="http://www.w3.org/1999/02/22-rdf-syntax-ns#"
   xmlns:svg="http://www.w3.org/2000/svg"
   xmlns="http://www.w3.org/2000/svg"
   xmlns:sodipodi="http://sodipodi.sourceforge.net/DTD/sodipodi-0.dtd"
   xmlns:inkscape="http://www.inkscape.org/namespaces/inkscape"
   width="176.01201pt"
   height="225pt"
   viewBox="0 0 176.01201 225"
   version="1.2"
   id="svg31"
   sodipodi:docname="PGA Tour logo.svg"
   inkscape:version="0.92.4 (5da689c313, 2019-01-14)">
  <metadata
     id="metadata37">
    <rdf:RDF>
      <cc:Work
         rdf:about="">
        <dc:format>image/svg+xml</dc:format>
        <dc:type
           rdf:resource="http://purl.org/dc/dcmitype/StillImage" />
        <dc:title></dc:title>
      </cc:Work>
    </rdf:RDF>
  </metadata>
  <defs
     id="defs35" />
  <sodipodi:namedview
     pagecolor="#ffffff"
     bordercolor="#666666"
     borderopacity="1"
     objecttolerance="10"
     gridtolerance="10"
     guidetolerance="10"
     inkscape:pageopacity="0"
     inkscape:pageshadow="2"
     inkscape:window-width="1366"
     inkscape:window-height="705"
     id="namedview33"
     showgrid="false"
     inkscape:zoom="1.3258252"
     inkscape:cx="60.563355"
     inkscape:cy="161.08333"
     inkscape:window-x="-8"
     inkscape:window-y="-8"
     inkscape:window-maximized="1"
     inkscape:current-layer="svg31" />
  <path
     inkscape:connector-curvature="0"
     id="path4"
     d="m 0,196.89656 c 0,15.51763 12.58217,28.09617 28.0998,28.09617 h 107.87051 c 15.5177,0 28.0925,-12.57854 28.0925,-28.09617 V 27.715736 c 0,-15.51764 -12.5748,-28.09616013 -28.0925,-27.70694013 H 28.0998 C 12.58217,-0.38042413 0,12.198096 0,27.715736 Z m 0,0"
     style="fill:#00386e;fill-opacity:1;fill-rule:nonzero;stroke:none;stroke-width:0.93120378" />
  <path
     inkscape:connector-curvature="0"
     id="path6"
     d="m 28.0998,6.0325159 c -11.97833,0 -21.68323,9.7121701 -21.68323,21.6832201 V 196.89656 c 0,11.9747 9.7049,21.67959 21.68323,21.67959 h 107.87051 c 11.9711,0 21.6796,-9.70489 21.6796,-21.67959 V 27.715736 c 0,-11.97105 -9.7085,-21.6832201 -21.6796,-21.6832201 z m 0,0"
     style="fill:#ffffff;fill-opacity:1;fill-rule:nonzero;stroke:none;stroke-width:0.93120378" />
  <path
     inkscape:connector-curvature="0"
     id="path8"
     d="m 27.96885,9.3281059 c -10.15595,0 -18.38764,8.2316901 -18.38764,18.3876301 V 196.89656 c 0,10.14867 8.23169,18.38764 18.38764,18.38764 h 107.87056 c 10.1522,0 18.3876,-8.23897 18.3876,-18.38764 V 27.715736 c 0,-10.15594 -8.2354,-18.3876301 -18.3876,-18.3876301 z m 0,0"
     style="fill:#00386e;fill-opacity:1;fill-rule:nonzero;stroke:none;stroke-width:0.93120378" />
  <path
     inkscape:connector-curvature="0"
     id="path10"
     d="m 169.92291,218.65982 c 0.9457,0 2.3243,0.1564 2.3243,-1.19311 0,-1.04033 -0.8511,-1.16037 -1.6659,-1.16037 h -1.8989 v 2.35348 z m 3.1246,3.70298 h -0.9749 l -1.8987,-3.05915 h -1.4915 v 3.05915 h -0.8148 v -6.6421 h 2.8992 c 1.7605,0 2.3571,0.66202 2.3571,1.75691 0,1.30588 -0.9094,1.79331 -2.0843,1.82604 z m 2.0224,-3.32832 c 0,-2.88819 -2.0988,-5.15073 -4.987,-5.15073 -2.91,0 -5.027,2.26254 -5.027,5.15073 0,2.92455 2.117,5.18346 5.027,5.18346 2.8882,0 4.987,-2.25891 4.987,-5.18346 m -10.9525,0 c 0,-3.26286 2.6663,-5.93279 5.9655,-5.93279 3.2774,0 5.9291,2.66993 5.9291,5.93279 0,3.29922 -2.6517,5.96552 -5.9291,5.96552 -3.2992,0 -5.9655,-2.6663 -5.9655,-5.96552"
     style="fill:#00386e;fill-opacity:1;fill-rule:nonzero;stroke:none;stroke-width:0.93120378" />
  <path
     inkscape:connector-curvature="0"
     id="path12"
     d="m 27.52507,50.577526 c 0,0.68021 -0.4074,1.08398 -1.14218,1.08398 H 24.5896 v 2.39348 h 11.57821 v -2.39348 h -1.9679 c -0.73477,0 -1.14582,-0.40377 -1.14582,-1.08398 v -4.29227 h 3.23012 c 5.40898,0 8.25716,-1.41135 8.25716,-5.13254 0,-3.72481 -2.84818,-5.1107 -7.67152,-5.1107 H 24.5605 v 2.39348 h 1.82239 c 0.73478,0 1.14218,0.40377 1.14218,1.08398 z m 5.52902,-12.14203 h 2.99368 c 1.6478,0 2.96821,1.05488 2.96821,2.74269 0,1.68417 -1.37861,2.71358 -3.43745,2.71358 h -2.52444 z m 0,0"
     style="fill:#ffffff;fill-opacity:1;fill-rule:nonzero;stroke:none;stroke-width:0.93120378" />
  <path
     inkscape:connector-curvature="0"
     id="path14"
     d="m 67.93422,46.936366 h -1.35315 c -0.73478,0 -1.14582,0.40741 -1.14582,1.08762 v 6.24561 h -2.55718 l -0.64747,-1.32769 c -1.70235,1.22221 -3.88123,1.65507 -5.78728,1.65507 -6.11467,0 -10.4033,-3.20465 -10.4033,-9.29021 0,-6.14013 4.14677,-9.81038 10.4033,-9.81038 1.70599,0 3.82303,0.52017 5.28895,1.82239 l 0.58927,-1.52048 h 2.64447 l 0.007,6.34019 h -2.73177 c -0.0873,-2.68812 -1.83331,-4.11039 -4.79788,-4.11039 -3.40835,0 -5.02705,2.33529 -5.02705,7.03495 0,4.69968 1.6187,6.95493 5.02705,6.95493 1.11672,0 2.4626,-0.4074 2.4626,-1.68781 v -2.30618 c 0,-0.68021 -0.4074,-1.08762 -1.14218,-1.08762 h -1.52776 v -2.38985 h 10.69793 z m 0,0"
     style="fill:#ffffff;fill-opacity:1;fill-rule:nonzero;stroke:none;stroke-width:0.93120378" />
  <path
     inkscape:connector-curvature="0"
     id="path16"
     d="m 75.68577,46.834516 2.70267,-6.04919 2.46988,6.04919 z m 14.64463,5.158 c -1.97153,-0.33101 -2.02973,-0.76388 -2.77178,-2.39349 l -5.7982,-13.36423 h -4.43049 l -5.54358,12.34573 c -0.85482,1.80784 -1.3968,3.21192 -3.91396,3.44109 v 2.0843 h 8.83188 v -2.0843 l -0.291,-0.029 c -0.68385,-0.0982 -2.25162,-0.0982 -2.25162,-0.99305 0,-0.32737 0.19643,-0.84026 0.33829,-1.16764 l 0.34557,-0.85481 h 6.98038 l 0.39286,0.85481 c 0.10912,0.35284 0.39649,1.01487 0.39649,1.37498 0,0.78571 -1.76784,0.73842 -2.37167,0.81481 v 2.08429 h 10.39966 v -2.08429 z m 0,0"
     style="fill:#ffffff;fill-opacity:1;fill-rule:nonzero;stroke:none;stroke-width:0.93120378" />
  <path
     inkscape:connector-curvature="0"
     id="path18"
     d="m 113.70508,94.944296 c -0.14914,-0.52381 -1.14946,-3.10644 -1.61506,-4.47051 -0.0618,-0.18188 8.16986,-5.5654 8.16986,-5.5654 0,0 0.10912,0.44014 0.17096,0.97122 0,0 -5.55813,8.30808 -6.72576,9.06469 m 27.30323,-33.60337 c 2.7863,-2.82635 2.8554,-9.62486 2.8554,-9.62486 -2.8082,-5.10707 -8.6901,-6.63846 -8.6901,-6.63846 -1.31305,-0.93121 -2.36792,-0.0727 -2.79358,0.39284 h -0.0214 L 85.16188,16.661336 c -3.44109,-1.78238 -8.18805,4.30681 -9.38116,6.54752 -0.48014,0.81117 1.05852,2.00791 2.10613,2.64811 4.28499,2.80453 6.33291,-4.39047 7.90431,-6.9331 l 45.65079,28.80548 c -0.0913,0.0328 0.15281,2.37894 0.26558,2.48078 -0.0251,3.74664 2.97548,6.85308 1.20032,12.27662 -0.4765,7.59513 -8.71544,9.11561 -13.19322,13.8371 -4.12494,4.04129 -12.25115,3.53203 -15.65586,6.84944 -0.0291,0.0328 -0.091,0.0946 -0.091,0.0946 0,0 -0.0254,-0.12004 -0.0328,-0.14186 -2.93548,-7.68607 -4.67785,-8.11529 -5.57995,-11.20355 -3.5975,-1.35679 -7.83885,-1.68053 -11.27629,0.16369 -3.2956,2.15341 -4.9543,6.23834 -4.39776,9.83584 0.0764,3.67753 5.27803,7.67516 7.99889,9.27566 -1.74964,2.53171 -2.58627,5.6236 -2.62628,6.91128 -0.4365,5.452634 3.88487,10.672474 5.09616,12.829524 5.11071,7.57694 8.00253,13.59339 9.12652,15.71769 0.17823,0.41105 0.45105,0.74206 0.18915,1.30224 -0.0691,0.1455 -4.41594,7.75154 2.76451,18.66409 2.92093,5.61268 7.11498,18.13664 7.155,18.20576 1.66962,1.77875 -2.26618,0.68021 -2.6663,4.78333 -2.81908,1.10216 -24.15674,17.43461 -28.95826,21.75234 -1.91697,0.55654 -4.39776,0.47651 -5.19801,2.87727 -0.12367,0.18552 -0.86573,2.30983 -1.32769,2.82272 -2.05519,2.36438 -4.45232,6.56935 -4.8961,10.69065 -0.46923,2.10976 0.0582,6.21651 2.51716,7.30776 1.11672,0.49471 1.58232,0.14187 1.87696,0 0.32374,-0.16004 1.706,-3.91396 1.88423,-4.34682 1.70236,-4.12858 4.19042,-5.23439 9.94497,-10.95256 2.87727,0.79298 4.13949,2.49533 7.09679,3.21556 7.9989,-7.4278 16.05235,-14.23723 23.91666,-21.86146 -1.20401,11.80374 -2.32437,23.92394 -2.29163,27.1686 -0.50926,2.06975 -0.57109,5.61632 0.89119,7.36597 0,0 13.06955,0.76387 15.58678,0.57836 1.25489,-0.0946 1.32761,-0.83663 1.32761,-0.83663 0,0 1.16764,-1.76055 -2.00423,-4.11403 -0.91667,-0.68021 -3.12102,-3.41562 -4.83062,-4.53598 2.25529,-0.50561 4.6306,-0.89483 5.15068,-0.89483 -0.60016,-6.2056 -0.73472,-19.60984 -1.18217,-37.1463 -1.94239,-18.16938 -2.10973,-24.28405 -11.15987,-61.50673 6.40567,-7.278674 6.15831,-11.803744 12.31662,-19.318854 3.31378,-6.45659 8.42812,-19.5771 10.62892,-26.53567"
     style="fill:#ffffff;fill-opacity:1;fill-rule:nonzero;stroke:none;stroke-width:0.93120378" />
  <path
     inkscape:connector-curvature="0"
     id="path20"
     d="m 42.91903,178.97088 v -4.22314 l 3.98672,0.004 c 1.13126,0 1.95335,0.85846 1.95335,2.04065 0,1.33133 -1.02215,2.1716 -1.92789,2.1716 z m 0.64748,14.16085 c -0.68749,0 -0.70204,-0.62565 -0.70204,-0.62565 l -0.004,-3.89214 2.55354,0.004 c 0.78933,0 1.18583,0.11276 1.18583,1.00395 0.007,0.23644 0.0182,1.86241 0.0182,1.86241 0,0.49834 -0.0364,1.13127 -0.0109,1.64779 z m 4.77242,-79.69794 c 0,6.10738 -1.34224,9.20654 -3.98308,9.20654 -1.29132,0 -3.98671,0 -3.98671,-9.20654 0,-9.20292 2.79725,-9.20292 3.98671,-9.20292 1.68054,0 3.98308,0 3.98308,9.20292 m -4.82334,26.79756 5.94006,-0.0109 c 0,0 0.50197,0.029 0.50197,0.48016 0,0.45104 -0.004,13.41515 -0.004,15.43396 0,1.09853 -0.96031,1.99701 -3.38289,1.99701 -2.42622,0 -3.65571,-0.89483 -3.65571,-1.99337 v -15.4267 c 0,-0.40012 0.6002,-0.48015 0.6002,-0.48015 m 18.72228,52.97676 c -0.26917,0.004 -1.33861,-0.10548 -1.31678,-1.29131 l 0.007,-1.23676 c 0,-1.90969 -0.13822,-3.90305 -1.06942,-5.68543 -0.20734,-0.4365 -0.46924,-0.80753 -0.74933,-1.16401 0.0982,-0.0691 0.21461,-0.12367 0.30919,-0.19642 l 0.0509,-0.04 0.0509,-0.0437 c 2.08065,-1.78238 3.13917,-4.16496 3.13917,-7.08224 0,-1.98244 -0.49834,-4.04128 -1.3968,-5.79456 l -0.04,-0.0764 -0.0437,-0.0727 c -1.2986,-2.16797 -3.18283,-3.60842 -5.68908,-4.36866 3.41563,-2.01882 5.15072,-5.449 5.15072,-10.28689 v -15.63768 h 4.08857 l -0.0618,-10.23233 h -9.59576 c 5.56539,-3.11008 8.77005,-8.8828 8.77005,-16.56524 0,-8.4354 -3.62661,-13.622494 -8.57363,-16.437934 h 3.70663 v -9.51936 h -7.20228 v -17.03085 c 1.60779,0.0764 2.70995,1.71327 2.8118,4.25226 0,0 0.12368,3.15008 0.12368,3.15008 l 9.92314,0.0328 V 60.155176 H 24.33064 v 17.72561 l 9.93405,-0.0328 0.12004,-3.15373 c 0.10185,-2.53534 1.20402,-4.17223 2.80816,-4.24861 v 17.03085 h -7.20592 v 9.51937 h 3.08826 c -4.94702,2.81544 -8.57362,8.002534 -8.57362,16.437934 0,7.68244 3.20464,13.45516 8.77005,16.56524 h -8.69731 v 10.22142 h 4.10312 v 16.63072 c 0,3.13917 1.44409,6.39839 4.98703,8.63182 l -9.21018,-0.0145 -0.029,10.07955 c 0,0 3.04459,0.0328 3.91396,0.0182 0,0.10913 0.68749,0.0109 0.59655,0.71659 -0.0145,2.82635 -0.0181,12.96411 -0.0145,16.11419 0,0.84755 -0.60383,0.59292 -0.60383,0.74933 -0.82572,-0.0145 -3.87395,0.0109 -3.87395,0.0109 l 0.007,9.98497 h 24.45501 c 0,0 0.004,-2.90637 0.004,-2.93547 1.88787,2.09157 4.61964,3.15373 8.16259,3.15373 h 8.40629 v -10.12321 z m 0,0"
     style="fill:#ffffff;fill-opacity:1;fill-rule:nonzero;stroke:none;stroke-width:0.93120378" />
  <path
     inkscape:connector-curvature="0"
     id="path22"
     d="M 61.33941,62.821396 H 26.994 v 12.38573 l 4.70694,-0.0145 0.0218,-0.60019 c 0.18916,-4.72513 2.93548,-6.83853 5.57995,-6.83853 1.72055,0 2.55717,0.3492 2.55717,1.07306 v 19.14061 c 0,1.02942 -0.67293,2.17524 -1.63688,2.17524 h -5.56903 v 4.19041 h 23.65839 v -4.19041 h -5.56903 c -0.96394,0 -1.63688,-1.14582 -1.63688,-2.17524 v -19.14061 c 0,-0.72386 0.83663,-1.07306 2.55718,-1.07306 2.64083,0 5.39442,2.1134 5.58358,6.83853 l 0.0218,0.60019 4.69603,0.0145 v -12.38573 z m 0,0"
     style="fill:#e6000a;fill-opacity:1;fill-rule:nonzero;stroke:none;stroke-width:0.93120378" />
  <path
     inkscape:connector-curvature="0"
     id="path24"
     d="M 62.01963,132.66168 H 47.90971 v 4.89246 h 2.63356 c 0.89119,0 1.46956,0.14914 1.76783,0.45469 0.31646,0.32374 0.33101,0.81116 0.31646,1.57505 0,0.004 -0.007,0.41467 -0.007,0.41467 0,0.007 -0.004,16.99447 -0.004,16.99447 -0.10912,0.82208 -0.88028,3.76483 -6.04555,3.76483 -3.95761,0 -6.31836,-1.51685 -6.31836,-4.05583 v -17.00174 c 0,-1.9679 0.91665,-2.13159 1.77874,-2.13159 h 3.15372 v -4.90701 H 27.24125 v 4.89246 h 2.02247 c 0.89483,0 1.47319,0.14914 1.77146,0.45469 0.34193,0.3492 0.32738,0.94212 0.31283,1.56777 0,0.007 -0.004,0.42195 -0.004,0.42195 v 16.85261 c 0,4.24862 3.78301,8.79187 14.40819,8.79187 10.83616,0 12.2257,-5.22711 12.2257,-9.774 v -16.16875 c 0,-1.9679 0.91664,-2.13159 1.7751,-2.13159 h 2.29527 z m 0,0"
     style="fill:#e6000a;fill-opacity:1;fill-rule:nonzero;stroke:none;stroke-width:0.93120378" />
  <path
     inkscape:connector-curvature="0"
     id="path26"
     d="m 44.35585,125.30299 c -2.85181,0 -6.64574,-1.00396 -6.64574,-11.8692 0,-8.15168 2.1716,-11.86558 6.64574,-11.86558 4.7215,0 6.64574,3.25921 6.64574,11.86558 0,7.92977 -2.2989,11.8692 -6.64574,11.8692 M 44.17398,96.944916 c -8.22079,0 -17.00538,4.146774 -17.00538,16.488874 0,10.47967 6.35474,16.48885 17.00538,16.48885 10.647,0 17.00174,-6.00918 17.00174,-16.48885 0,-12.3421 -8.78459,-16.488874 -17.00174,-16.488874"
     style="fill:#e6000a;fill-opacity:1;fill-rule:nonzero;stroke:none;stroke-width:0.93120378" />
  <path
     inkscape:connector-curvature="0"
     id="path28"
     d="m 40.25638,172.11417 c 0.98212,0 4.38683,0.0182 6.83488,0.0182 2.22616,0 3.79757,0.97849 4.25954,2.67721 0.27644,1.05488 0.30191,2.73178 -0.18188,4.04856 -0.65475,1.78602 -2.08066,2.69904 -4.09948,2.69904 -0.004,0 -5.32532,0 -6.81306,0.004 z m 22.07971,23.61838 c -1.19674,0.0109 -3.92852,-0.0836 -3.92852,-3.81574 l 0.007,-1.25495 c 0,-1.46592 -0.0618,-3.14281 -0.78934,-4.49233 -0.68022,-1.46228 -2.37894,-2.30983 -3.31015,-2.73177 1.18948,-0.3783 2.54263,-1.07307 3.62297,-1.9097 1.42954,-1.22948 2.20433,-2.85909 2.20433,-5.05979 0,-1.56776 -0.3892,-3.19374 -1.09852,-4.57599 -1.52776,-2.54626 -4.11767,-3.71754 -8.1735,-3.71754 -0.0109,0 -23.61111,-0.04 -23.61111,-0.04 l -0.0109,4.79789 c 0,0 1.71691,-0.0182 3.05915,-0.0182 1.34224,0 1.4841,1.32041 1.4841,1.32041 0,0 0.0364,14.96474 0.0437,19.81718 0,0.78207 -0.73115,1.62233 -1.44774,1.62233 h -3.14281 l 0.0145,4.80152 h 19.54437 l -0.0145,-4.79788 h -4.85244 c -0.69841,0 -1.52412,-0.93847 -1.52412,-1.73509 0,0 -0.007,-5.97644 -0.0109,-7.93342 0.24008,0 5.7982,0 5.7982,0 0.64383,0 3.15373,0.3201 3.09553,3.31013 l -0.0509,2.05884 c 0.0328,1.82239 -0.16006,3.27377 0.63656,5.31078 1.31315,2.70994 3.703,4.0049 7.34051,4.0049 h 5.74363 v -4.96885 z m 0,0"
     style="fill:#e6000a;fill-opacity:1;fill-rule:nonzero;stroke:none;stroke-width:0.93120378" />
</svg>
